<svg xmlns="http://www.w3.org/2000/svg" xmlns:xlink="http://www.w3.org/1999/xlink" xmlns:xodm="http://www.corel.com/coreldraw/odm/2003" xml:space="preserve" width="4584px" height="4584px" style="shape-rendering:geometricPrecision; text-rendering:geometricPrecision; image-rendering:optimizeQuality; fill-rule:evenodd; clip-rule:evenodd" viewBox="0 0 4582.63 4582.63"> <defs>  <style type="text/css">   <![CDATA[    .fil2 {fill:white}    .fil1 {fill:#2A6F6F;fill-rule:nonzero}    .fil0 {fill:white;fill-rule:nonzero}   ]]>  </style> </defs> <g id="Camada_x0020_1">  <metadata id="CorelCorpID_0Corel-Layer"></metadata>  <g id="_2665656050560">   <g>    <path class="fil0" d="M195.74 4540.49l4191.15 0c42.2,0 80.61,-17.28 108.47,-45.13 27.85,-27.86 45.13,-66.27 45.13,-108.47l0 -4191.15c0,-42.2 -17.28,-80.61 -45.13,-108.47 -27.86,-27.85 -66.27,-45.13 -108.47,-45.13l-4191.15 0c-42.2,0 -80.61,17.28 -108.47,45.13 -27.85,27.86 -45.13,66.27 -45.13,108.47l0 4191.15c0,42.2 17.28,80.61 45.13,108.47 27.86,27.85 66.27,45.13 108.47,45.13z"></path>    <path class="fil1" d="M214.83 4520.01l4152.97 0c41.83,0 79.88,-17.13 107.48,-44.73 27.6,-27.6 44.73,-65.65 44.73,-107.48l0 -4152.97c0,-41.83 -17.13,-79.88 -44.73,-107.48 -27.6,-27.6 -65.65,-44.73 -107.48,-44.73l-4152.97 0c-41.83,0 -79.88,17.13 -107.48,44.73 -27.6,27.6 -44.73,65.65 -44.73,107.48l0 4152.97c0,41.83 17.13,79.88 44.73,107.48 27.6,27.6 65.65,44.73 107.48,44.73zm4152.97 62.62l-4152.97 0c-59.11,0 -112.83,-24.16 -151.75,-63.08 -38.92,-38.92 -63.08,-92.64 -63.08,-151.75l0 -4152.97c0,-59.11 24.16,-112.83 63.08,-151.75 38.92,-38.92 92.64,-63.08 151.75,-63.08l4152.97 0c59.11,0 112.83,24.16 151.75,63.08 38.92,38.92 63.08,92.64 63.08,151.75l0 4152.97c0,59.11 -24.16,112.83 -63.08,151.75 -38.92,38.92 -92.64,63.08 -151.75,63.08z"></path>    <g>     <g>      <rect class="fil1" x="1948.89" y="305.25" width="136.97" height="136.97"></rect>     </g>    </g>    <g>     <g>      <rect class="fil1" x="2222.83" y="305.25" width="136.97" height="136.97"></rect>     </g>    </g>    <g>     <g>      <rect class="fil1" x="2359.8" y="305.25" width="136.97" height="136.97"></rect>     </g>    </g>    <g>     <g>      <rect class="fil1" x="2770.71" y="305.25" width="136.97" height="136.97"></rect>     </g>    </g>    <g>     <g>      <rect class="fil1" x="2907.68" y="305.25" width="136.97" height="136.97"></rect>     </g>    </g>    <g>     <g>      <rect class="fil1" x="1948.89" y="442.22" width="136.97" height="136.97"></rect>     </g>    </g>    <g>     <g>      <rect class="fil1" x="2222.83" y="442.22" width="136.97" height="136.97"></rect>     </g>    </g>    <g>     <g>      <rect class="fil1" x="2359.8" y="442.22" width="136.97" height="136.97"></rect>     </g>    </g>    <g>     <g>      <rect class="fil1" x="2633.74" y="442.22" width="136.97" height="136.97"></rect>     </g>    </g>    <g>     <g>      <rect class="fil1" x="3044.65" y="442.22" width="136.97" height="136.97"></rect>     </g>    </g>    <g>     <g>      <rect class="fil1" x="1401.01" y="579.19" width="136.97" height="136.97"></rect>     </g>    </g>    <g>     <g>      <rect class="fil1" x="1537.98" y="579.19" width="136.97" height="136.97"></rect>     </g>    </g>    <g>     <g>      <rect class="fil1" x="1674.95" y="579.19" width="136.97" height="136.97"></rect>     </g>    </g>    <g>     <g>      <rect class="fil1" x="1948.89" y="579.19" width="136.97" height="136.97"></rect>     </g>    </g>    <g>     <g>      <rect class="fil1" x="2085.86" y="579.19" width="136.97" height="136.97"></rect>     </g>    </g>    <g>     <g>      <rect class="fil1" x="2359.8" y="579.19" width="136.97" height="136.97"></rect>     </g>    </g>    <g>     <g>      <rect class="fil1" x="2770.71" y="579.19" width="136.97" height="136.97"></rect>     </g>    </g>    <g>     <g>      <rect class="fil1" x="3044.65" y="579.19" width="136.97" height="136.97"></rect>     </g>    </g>    <g>     <g>      <rect class="fil1" x="1401.01" y="716.16" width="136.97" height="136.97"></rect>     </g>    </g>    <g>     <g>      <rect class="fil1" x="1948.89" y="716.16" width="136.97" height="136.97"></rect>     </g>    </g>    <g>     <g>      <rect class="fil1" x="2085.86" y="716.16" width="136.97" height="136.97"></rect>     </g>    </g>    <g>     <g>      <rect class="fil1" x="2222.83" y="716.16" width="136.97" height="136.97"></rect>     </g>    </g>    <g>     <g>      <rect class="fil1" x="2496.77" y="716.16" width="136.97" height="136.97"></rect>     </g>    </g>    <g>     <g>      <rect class="fil1" x="2633.74" y="716.16" width="136.97" height="136.97"></rect>     </g>    </g>    <g>     <g>      <rect class="fil1" x="2907.68" y="716.16" width="136.97" height="136.97"></rect>     </g>    </g>    <g>     <g>      <rect class="fil1" x="3044.65" y="716.16" width="136.97" height="136.97"></rect>     </g>    </g>    <g>     <g>      <rect class="fil1" x="1537.98" y="853.13" width="136.97" height="136.97"></rect>     </g>    </g>    <g>     <g>      <rect class="fil1" x="1674.95" y="853.13" width="136.97" height="136.97"></rect>     </g>    </g>    <g>     <g>      <rect class="fil1" x="1811.92" y="853.13" width="136.97" height="136.97"></rect>     </g>    </g>    <g>     <g>      <rect class="fil1" x="1948.89" y="853.13" width="136.97" height="136.97"></rect>     </g>    </g>    <g>     <g>      <rect class="fil1" x="2085.86" y="853.13" width="136.97" height="136.97"></rect>     </g>    </g>    <g>     <g>      <rect class="fil1" x="2222.83" y="853.13" width="136.97" height="136.97"></rect>     </g>    </g>    <g>     <g>      <rect class="fil1" x="2359.8" y="853.13" width="136.97" height="136.97"></rect>     </g>    </g>    <g>     <g>      <rect class="fil1" x="2633.74" y="853.13" width="136.97" height="136.97"></rect>     </g>    </g>    <g>     <g>      <rect class="fil1" x="2770.71" y="853.13" width="136.97" height="136.97"></rect>     </g>    </g>    <g>     <g>      <rect class="fil1" x="2907.68" y="853.13" width="136.97" height="136.97"></rect>     </g>    </g>    <g>     <g>      <rect class="fil1" x="3044.65" y="853.13" width="136.97" height="136.97"></rect>     </g>    </g>    <g>     <g>      <rect class="fil1" x="2633.74" y="990.1" width="136.97" height="136.97"></rect>     </g>    </g>    <g>     <g>      <rect class="fil1" x="2770.71" y="990.1" width="136.97" height="136.97"></rect>     </g>    </g>    <g>     <g>      <rect class="fil1" x="3044.65" y="990.1" width="136.97" height="136.97"></rect>     </g>    </g>    <g>     <g>      <rect class="fil1" x="1401.01" y="1127.07" width="136.97" height="136.97"></rect>     </g>    </g>    <g>     <g>      <rect class="fil1" x="1674.95" y="1127.07" width="136.97" height="136.97"></rect>     </g>    </g>    <g>     <g>      <rect class="fil1" x="1948.89" y="1127.07" width="136.97" height="136.97"></rect>     </g>    </g>    <g>     <g>      <rect class="fil1" x="2222.83" y="1127.07" width="136.97" height="136.97"></rect>     </g>    </g>    <g>     <g>      <rect class="fil1" x="2496.77" y="1127.07" width="136.97" height="136.97"></rect>     </g>    </g>    <g>     <g>      <rect class="fil1" x="2770.71" y="1127.07" width="136.97" height="136.97"></rect>     </g>    </g>    <g>     <g>      <rect class="fil1" x="3044.65" y="1127.07" width="136.97" height="136.97"></rect>     </g>    </g>    <g>     <g>      <rect class="fil1" x="1674.95" y="1264.04" width="136.97" height="136.97"></rect>     </g>    </g>    <g>     <g>      <rect class="fil1" x="1811.92" y="1264.04" width="136.97" height="136.97"></rect>     </g>    </g>    <g>     <g>      <rect class="fil1" x="1948.89" y="1264.04" width="136.97" height="136.97"></rect>     </g>    </g>    <g>     <g>      <rect class="fil1" x="2907.68" y="1264.04" width="136.97" height="136.97"></rect>     </g>    </g>    <g>     <g>      <rect class="fil1" x="3044.65" y="1264.04" width="136.97" height="136.97"></rect>     </g>    </g>    <g>     <g>      <rect class="fil1" x="716.16" y="1401.01" width="136.97" height="136.97"></rect>     </g>    </g>    <g>     <g>      <rect class="fil1" x="853.13" y="1401.01" width="136.97" height="136.97"></rect>     </g>    </g>    <g>     <g>      <rect class="fil1" x="1127.07" y="1401.01" width="136.97" height="136.97"></rect>     </g>    </g>    <g>     <g>      <rect class="fil1" x="1264.04" y="1401.01" width="136.97" height="136.97"></rect>     </g>    </g>    <g>     <g>      <rect class="fil1" x="1811.92" y="1401.01" width="136.97" height="136.97"></rect>     </g>    </g>    <g>     <g>      <rect class="fil1" x="1948.89" y="1401.01" width="136.97" height="136.97"></rect>     </g>    </g>    <g>     <g>      <rect class="fil1" x="2085.86" y="1401.01" width="136.97" height="136.97"></rect>     </g>    </g>    <g>     <g>      <rect class="fil1" x="2222.83" y="1401.01" width="136.97" height="136.97"></rect>     </g>    </g>    <g>     <g>      <rect class="fil1" x="2496.77" y="1401.01" width="136.97" height="136.97"></rect>     </g>    </g>    <g>     <g>      <rect class="fil1" x="2770.71" y="1401.01" width="136.97" height="136.97"></rect>     </g>    </g>    <g>     <g>      <rect class="fil1" x="2907.68" y="1401.01" width="136.97" height="136.97"></rect>     </g>    </g>    <g>     <g>      <rect class="fil1" x="3729.5" y="1401.01" width="136.97" height="136.97"></rect>     </g>    </g>    <g>     <g>      <rect class="fil1" x="3866.47" y="1401.01" width="136.97" height="136.97"></rect>     </g>    </g>    <g>     <g>      <rect class="fil1" x="305.25" y="1537.98" width="136.97" height="136.97"></rect>     </g>    </g>    <g>     <g>      <rect class="fil1" x="990.1" y="1537.98" width="136.97" height="136.97"></rect>     </g>    </g>    <g>     <g>      <rect class="fil1" x="1264.04" y="1537.98" width="136.97" height="136.97"></rect>     </g>    </g>    <g>     <g>      <rect class="fil1" x="1401.01" y="1537.98" width="136.97" height="136.97"></rect>     </g>    </g>    <g>     <g>      <rect class="fil1" x="1948.89" y="1537.98" width="136.97" height="136.97"></rect>     </g>    </g>    <g>     <g>      <rect class="fil1" x="2085.86" y="1537.98" width="136.97" height="136.97"></rect>     </g>    </g>    <g>     <g>      <rect class="fil1" x="2633.74" y="1537.98" width="136.97" height="136.97"></rect>     </g>    </g>    <g>     <g>      <rect class="fil1" x="3044.65" y="1537.98" width="136.97" height="136.97"></rect>     </g>    </g>    <g>     <g>      <rect class="fil1" x="3455.56" y="1537.98" width="136.97" height="136.97"></rect>     </g>    </g>    <g>     <g>      <rect class="fil1" x="3592.53" y="1537.98" width="136.97" height="136.97"></rect>     </g>    </g>    <g>     <g>      <rect class="fil1" x="3729.5" y="1537.98" width="136.97" height="136.97"></rect>     </g>    </g>    <g>     <g>      <rect class="fil1" x="4003.44" y="1537.98" width="136.97" height="136.97"></rect>     </g>    </g>    <g>     <g>      <rect class="fil1" x="305.25" y="1674.95" width="136.97" height="136.97"></rect>     </g>    </g>    <g>     <g>      <rect class="fil1" x="442.22" y="1674.95" width="136.97" height="136.97"></rect>     </g>    </g>    <g>     <g>      <rect class="fil1" x="579.19" y="1674.95" width="136.97" height="136.97"></rect>     </g>    </g>    <g>     <g>      <rect class="fil1" x="853.13" y="1674.95" width="136.97" height="136.97"></rect>     </g>    </g>    <g>     <g>      <rect class="fil1" x="1127.07" y="1674.95" width="136.97" height="136.97"></rect>     </g>    </g>    <g>     <g>      <rect class="fil1" x="3181.62" y="1674.95" width="136.97" height="136.97"></rect>     </g>    </g>    <g>     <g>      <rect class="fil1" x="3318.59" y="1674.95" width="136.97" height="136.97"></rect>     </g>    </g>    <g>     <g>      <rect class="fil1" x="305.25" y="1811.92" width="136.97" height="136.97"></rect>     </g>    </g>    <g>     <g>      <rect class="fil1" x="442.22" y="1811.92" width="136.97" height="136.97"></rect>     </g>    </g>    <g>     <g>      <rect class="fil1" x="853.13" y="1811.92" width="136.97" height="136.97"></rect>     </g>    </g>    <g>     <g>      <rect class="fil1" x="990.1" y="1811.92" width="136.97" height="136.97"></rect>     </g>    </g>    <g>     <g>      <rect class="fil1" x="1264.04" y="1811.92" width="136.97" height="136.97"></rect>     </g>    </g>    <g>     <g>      <rect class="fil1" x="1537.98" y="1811.92" width="136.97" height="136.97"></rect>     </g>    </g>    <g>     <g>      <rect class="fil1" x="3044.65" y="1811.92" width="136.97" height="136.97"></rect>     </g>    </g>    <g>     <g>      <rect class="fil1" x="3455.56" y="1811.92" width="136.97" height="136.97"></rect>     </g>    </g>    <g>     <g>      <rect class="fil1" x="3592.53" y="1811.92" width="136.97" height="136.97"></rect>     </g>    </g>    <g>     <g>      <rect class="fil1" x="3729.5" y="1811.92" width="136.97" height="136.97"></rect>     </g>    </g>    <g>     <g>      <rect class="fil1" x="4140.41" y="1811.92" width="136.97" height="136.97"></rect>     </g>    </g>    <g>     <g>      <rect class="fil1" x="305.25" y="1948.89" width="136.97" height="136.97"></rect>     </g>    </g>    <g>     <g>      <rect class="fil1" x="990.1" y="1948.89" width="136.97" height="136.97"></rect>     </g>    </g>    <g>     <g>      <rect class="fil1" x="1127.07" y="1948.89" width="136.97" height="136.97"></rect>     </g>    </g>    <g>     <g>      <rect class="fil1" x="1264.04" y="1948.89" width="136.97" height="136.97"></rect>     </g>    </g>    <g>     <g>      <rect class="fil1" x="1401.01" y="1948.89" width="136.97" height="136.97"></rect>     </g>    </g>    <g>     <g>      <rect class="fil1" x="2907.68" y="1948.89" width="136.97" height="136.97"></rect>     </g>    </g>    <g>     <g>      <rect class="fil1" x="3044.65" y="1948.89" width="136.97" height="136.97"></rect>     </g>    </g>    <g>     <g>      <rect class="fil1" x="3181.62" y="1948.89" width="136.97" height="136.97"></rect>     </g>    </g>    <g>     <g>      <rect class="fil1" x="3318.59" y="1948.89" width="136.97" height="136.97"></rect>     </g>    </g>    <g>     <g>      <rect class="fil1" x="3729.5" y="1948.89" width="136.97" height="136.97"></rect>     </g>    </g>    <g>     <g>      <rect class="fil1" x="4003.44" y="1948.89" width="136.97" height="136.97"></rect>     </g>    </g>    <g>     <g>      <rect class="fil1" x="305.25" y="2085.86" width="136.97" height="136.97"></rect>     </g>    </g>    <g>     <g>      <rect class="fil1" x="716.16" y="2085.86" width="136.97" height="136.97"></rect>     </g>    </g>    <g>     <g>      <rect class="fil1" x="853.13" y="2085.86" width="136.97" height="136.97"></rect>     </g>    </g>    <g>     <g>      <rect class="fil1" x="990.1" y="2085.86" width="136.97" height="136.97"></rect>     </g>    </g>    <g>     <g>      <rect class="fil1" x="1537.98" y="2085.86" width="136.97" height="136.97"></rect>     </g>    </g>    <g>     <g>      <rect class="fil1" x="3318.59" y="2085.86" width="136.97" height="136.97"></rect>     </g>    </g>    <g>     <g>      <rect class="fil1" x="3592.53" y="2085.86" width="136.97" height="136.97"></rect>     </g>    </g>    <g>     <g>      <rect class="fil1" x="3866.47" y="2085.86" width="136.97" height="136.97"></rect>     </g>    </g>    <g>     <g>      <rect class="fil1" x="4140.41" y="2085.86" width="136.97" height="136.97"></rect>     </g>    </g>    <g>     <g>      <rect class="fil1" x="305.25" y="2222.83" width="136.97" height="136.97"></rect>     </g>    </g>    <g>     <g>      <rect class="fil1" x="442.22" y="2222.83" width="136.97" height="136.97"></rect>     </g>    </g>    <g>     <g>      <rect class="fil1" x="716.16" y="2222.83" width="136.97" height="136.97"></rect>     </g>    </g>    <g>     <g>      <rect class="fil1" x="990.1" y="2222.83" width="136.97" height="136.97"></rect>     </g>    </g>    <g>     <g>      <rect class="fil1" x="1127.07" y="2222.83" width="136.97" height="136.97"></rect>     </g>    </g>    <g>     <g>      <rect class="fil1" x="1401.01" y="2222.83" width="136.97" height="136.97"></rect>     </g>    </g>    <g>     <g>      <rect class="fil1" x="1537.98" y="2222.83" width="136.97" height="136.97"></rect>     </g>    </g>    <g>     <g>      <rect class="fil1" x="2907.68" y="2222.83" width="136.97" height="136.97"></rect>     </g>    </g>    <g>     <g>      <rect class="fil1" x="3044.65" y="2222.83" width="136.97" height="136.97"></rect>     </g>    </g>    <g>     <g>      <rect class="fil1" x="3181.62" y="2222.83" width="136.97" height="136.97"></rect>     </g>    </g>    <g>     <g>      <rect class="fil1" x="3318.59" y="2222.83" width="136.97" height="136.97"></rect>     </g>    </g>    <g>     <g>      <rect class="fil1" x="3455.56" y="2222.83" width="136.97" height="136.97"></rect>     </g>    </g>    <g>     <g>      <rect class="fil1" x="3729.5" y="2222.83" width="136.97" height="136.97"></rect>     </g>    </g>    <g>     <g>      <rect class="fil1" x="4140.41" y="2222.83" width="136.97" height="136.97"></rect>     </g>    </g>    <g>     <g>      <rect class="fil1" x="305.25" y="2359.8" width="136.97" height="136.97"></rect>     </g>    </g>    <g>     <g>      <rect class="fil1" x="442.22" y="2359.8" width="136.97" height="136.97"></rect>     </g>    </g>    <g>     <g>      <rect class="fil1" x="716.16" y="2359.8" width="136.97" height="136.97"></rect>     </g>    </g>    <g>     <g>      <rect class="fil1" x="853.13" y="2359.8" width="136.97" height="136.97"></rect>     </g>    </g>    <g>     <g>      <rect class="fil1" x="1264.04" y="2359.8" width="136.97" height="136.97"></rect>     </g>    </g>    <g>     <g>      <rect class="fil1" x="2907.68" y="2359.8" width="136.97" height="136.97"></rect>     </g>    </g>    <g>     <g>      <rect class="fil1" x="3592.53" y="2359.8" width="136.97" height="136.97"></rect>     </g>    </g>    <g>     <g>      <rect class="fil1" x="3729.5" y="2359.8" width="136.97" height="136.97"></rect>     </g>    </g>    <g>     <g>      <rect class="fil1" x="3866.47" y="2359.8" width="136.97" height="136.97"></rect>     </g>    </g>    <g>     <g>      <rect class="fil1" x="4003.44" y="2359.8" width="136.97" height="136.97"></rect>     </g>    </g>    <g>     <g>      <rect class="fil1" x="4140.41" y="2359.8" width="136.97" height="136.97"></rect>     </g>    </g>    <g>     <g>      <rect class="fil1" x="305.25" y="2496.77" width="136.97" height="136.97"></rect>     </g>    </g>    <g>     <g>      <rect class="fil1" x="442.22" y="2496.77" width="136.97" height="136.97"></rect>     </g>    </g>    <g>     <g>      <rect class="fil1" x="990.1" y="2496.77" width="136.97" height="136.97"></rect>     </g>    </g>    <g>     <g>      <rect class="fil1" x="1127.07" y="2496.77" width="136.97" height="136.97"></rect>     </g>    </g>    <g>     <g>      <rect class="fil1" x="1537.98" y="2496.77" width="136.97" height="136.97"></rect>     </g>    </g>    <g>     <g>      <rect class="fil1" x="3729.5" y="2496.77" width="136.97" height="136.97"></rect>     </g>    </g>    <g>     <g>      <rect class="fil1" x="4003.44" y="2496.77" width="136.97" height="136.97"></rect>     </g>    </g>    <g>     <g>      <rect class="fil1" x="4140.41" y="2496.77" width="136.97" height="136.97"></rect>     </g>    </g>    <g>     <g>      <rect class="fil1" x="305.25" y="2633.74" width="136.97" height="136.97"></rect>     </g>    </g>    <g>     <g>      <rect class="fil1" x="579.19" y="2633.74" width="136.97" height="136.97"></rect>     </g>    </g>    <g>     <g>      <rect class="fil1" x="716.16" y="2633.74" width="136.97" height="136.97"></rect>     </g>    </g>    <g>     <g>      <rect class="fil1" x="853.13" y="2633.74" width="136.97" height="136.97"></rect>     </g>    </g>    <g>     <g>      <rect class="fil1" x="1264.04" y="2633.74" width="136.97" height="136.97"></rect>     </g>    </g>    <g>     <g>      <rect class="fil1" x="2907.68" y="2633.74" width="136.97" height="136.97"></rect>     </g>    </g>    <g>     <g>      <rect class="fil1" x="3044.65" y="2633.74" width="136.97" height="136.97"></rect>     </g>    </g>    <g>     <g>      <rect class="fil1" x="3592.53" y="2633.74" width="136.97" height="136.97"></rect>     </g>    </g>    <g>     <g>      <rect class="fil1" x="3866.47" y="2633.74" width="136.97" height="136.97"></rect>     </g>    </g>    <g>     <g>      <rect class="fil1" x="305.25" y="2770.71" width="136.97" height="136.97"></rect>     </g>    </g>    <g>     <g>      <rect class="fil1" x="442.22" y="2770.71" width="136.97" height="136.97"></rect>     </g>    </g>    <g>     <g>      <rect class="fil1" x="579.19" y="2770.71" width="136.97" height="136.97"></rect>     </g>    </g>    <g>     <g>      <rect class="fil1" x="1127.07" y="2770.71" width="136.97" height="136.97"></rect>     </g>    </g>    <g>     <g>      <rect class="fil1" x="1264.04" y="2770.71" width="136.97" height="136.97"></rect>     </g>    </g>    <g>     <g>      <rect class="fil1" x="2907.68" y="2770.71" width="136.97" height="136.97"></rect>     </g>    </g>    <g>     <g>      <rect class="fil1" x="4140.41" y="2770.71" width="136.97" height="136.97"></rect>     </g>    </g>    <g>     <g>      <rect class="fil1" x="305.25" y="2907.68" width="136.97" height="136.97"></rect>     </g>    </g>    <g>     <g>      <rect class="fil1" x="442.22" y="2907.68" width="136.97" height="136.97"></rect>     </g>    </g>    <g>     <g>      <rect class="fil1" x="853.13" y="2907.68" width="136.97" height="136.97"></rect>     </g>    </g>    <g>     <g>      <rect class="fil1" x="990.1" y="2907.68" width="136.97" height="136.97"></rect>     </g>    </g>    <g>     <g>      <rect class="fil1" x="1537.98" y="2907.68" width="136.97" height="136.97"></rect>     </g>    </g>    <g>     <g>      <rect class="fil1" x="1811.92" y="2907.68" width="136.97" height="136.97"></rect>     </g>    </g>    <g>     <g>      <rect class="fil1" x="1948.89" y="2907.68" width="136.97" height="136.97"></rect>     </g>    </g>    <g>     <g>      <rect class="fil1" x="2085.86" y="2907.68" width="136.97" height="136.97"></rect>     </g>    </g>    <g>     <g>      <rect class="fil1" x="2222.83" y="2907.68" width="136.97" height="136.97"></rect>     </g>    </g>    <g>     <g>      <rect class="fil1" x="2359.8" y="2907.68" width="136.97" height="136.97"></rect>     </g>    </g>    <g>     <g>      <rect class="fil1" x="2496.77" y="2907.68" width="136.97" height="136.97"></rect>     </g>    </g>    <g>     <g>      <rect class="fil1" x="2770.71" y="2907.68" width="136.97" height="136.97"></rect>     </g>    </g>    <g>     <g>      <rect class="fil1" x="3181.62" y="2907.68" width="136.97" height="136.97"></rect>     </g>    </g>    <g>     <g>      <rect class="fil1" x="3318.59" y="2907.68" width="136.97" height="136.97"></rect>     </g>    </g>    <g>     <g>      <rect class="fil1" x="3729.5" y="2907.68" width="136.97" height="136.97"></rect>     </g>    </g>    <g>     <g>      <rect class="fil1" x="3866.47" y="2907.68" width="136.97" height="136.97"></rect>     </g>    </g>    <g>     <g>      <rect class="fil1" x="4140.41" y="2907.68" width="136.97" height="136.97"></rect>     </g>    </g>    <g>     <g>      <rect class="fil1" x="305.25" y="3044.65" width="136.97" height="136.97"></rect>     </g>    </g>    <g>     <g>      <rect class="fil1" x="442.22" y="3044.65" width="136.97" height="136.97"></rect>     </g>    </g>    <g>     <g>      <rect class="fil1" x="579.19" y="3044.65" width="136.97" height="136.97"></rect>     </g>    </g>    <g>     <g>      <rect class="fil1" x="716.16" y="3044.65" width="136.97" height="136.97"></rect>     </g>    </g>    <g>     <g>      <rect class="fil1" x="853.13" y="3044.65" width="136.97" height="136.97"></rect>     </g>    </g>    <g>     <g>      <rect class="fil1" x="990.1" y="3044.65" width="136.97" height="136.97"></rect>     </g>    </g>    <g>     <g>      <rect class="fil1" x="1127.07" y="3044.65" width="136.97" height="136.97"></rect>     </g>    </g>    <g>     <g>      <rect class="fil1" x="1264.04" y="3044.65" width="136.97" height="136.97"></rect>     </g>    </g>    <g>     <g>      <rect class="fil1" x="1537.98" y="3044.65" width="136.97" height="136.97"></rect>     </g>    </g>    <g>     <g>      <rect class="fil1" x="2085.86" y="3044.65" width="136.97" height="136.97"></rect>     </g>    </g>    <g>     <g>      <rect class="fil1" x="2222.83" y="3044.65" width="136.97" height="136.97"></rect>     </g>    </g>    <g>     <g>      <rect class="fil1" x="2359.8" y="3044.65" width="136.97" height="136.97"></rect>     </g>    </g>    <g>     <g>      <rect class="fil1" x="2496.77" y="3044.65" width="136.97" height="136.97"></rect>     </g>    </g>    <g>     <g>      <rect class="fil1" x="2633.74" y="3044.65" width="136.97" height="136.97"></rect>     </g>    </g>    <g>     <g>      <rect class="fil1" x="2907.68" y="3044.65" width="136.97" height="136.97"></rect>     </g>    </g>    <g>     <g>      <rect class="fil1" x="3044.65" y="3044.65" width="136.97" height="136.97"></rect>     </g>    </g>    <g>     <g>      <rect class="fil1" x="3181.62" y="3044.65" width="136.97" height="136.97"></rect>     </g>    </g>    <g>     <g>      <rect class="fil1" x="3318.59" y="3044.65" width="136.97" height="136.97"></rect>     </g>    </g>    <g>     <g>      <rect class="fil1" x="3455.56" y="3044.65" width="136.97" height="136.97"></rect>     </g>    </g>    <g>     <g>      <rect class="fil1" x="3592.53" y="3044.65" width="136.97" height="136.97"></rect>     </g>    </g>    <g>     <g>      <rect class="fil1" x="3729.5" y="3044.65" width="136.97" height="136.97"></rect>     </g>    </g>    <g>     <g>      <rect class="fil1" x="3866.47" y="3044.65" width="136.97" height="136.97"></rect>     </g>    </g>    <g>     <g>      <rect class="fil1" x="4140.41" y="3044.65" width="136.97" height="136.97"></rect>     </g>    </g>    <g>     <g>      <rect class="fil1" x="1401.01" y="3181.62" width="136.97" height="136.97"></rect>     </g>    </g>    <g>     <g>      <rect class="fil1" x="1537.98" y="3181.62" width="136.97" height="136.97"></rect>     </g>    </g>    <g>     <g>      <rect class="fil1" x="1674.95" y="3181.62" width="136.97" height="136.97"></rect>     </g>    </g>    <g>     <g>      <rect class="fil1" x="2359.8" y="3181.62" width="136.97" height="136.97"></rect>     </g>    </g>    <g>     <g>      <rect class="fil1" x="2907.68" y="3181.62" width="136.97" height="136.97"></rect>     </g>    </g>    <g>     <g>      <rect class="fil1" x="3044.65" y="3181.62" width="136.97" height="136.97"></rect>     </g>    </g>    <g>     <g>      <rect class="fil1" x="3592.53" y="3181.62" width="136.97" height="136.97"></rect>     </g>    </g>    <g>     <g>      <rect class="fil1" x="3729.5" y="3181.62" width="136.97" height="136.97"></rect>     </g>    </g>    <g>     <g>      <rect class="fil1" x="3866.47" y="3181.62" width="136.97" height="136.97"></rect>     </g>    </g>    <g>     <g>      <rect class="fil1" x="1401.01" y="3318.59" width="136.97" height="136.97"></rect>     </g>    </g>    <g>     <g>      <rect class="fil1" x="1537.98" y="3318.59" width="136.97" height="136.97"></rect>     </g>    </g>    <g>     <g>      <rect class="fil1" x="1948.89" y="3318.59" width="136.97" height="136.97"></rect>     </g>    </g>    <g>     <g>      <rect class="fil1" x="2085.86" y="3318.59" width="136.97" height="136.97"></rect>     </g>    </g>    <g>     <g>      <rect class="fil1" x="2222.83" y="3318.59" width="136.97" height="136.97"></rect>     </g>    </g>    <g>     <g>      <rect class="fil1" x="2359.8" y="3318.59" width="136.97" height="136.97"></rect>     </g>    </g>    <g>     <g>      <rect class="fil1" x="2496.77" y="3318.59" width="136.97" height="136.97"></rect>     </g>    </g>    <g>     <g>      <rect class="fil1" x="2633.74" y="3318.59" width="136.97" height="136.97"></rect>     </g>    </g>    <g>     <g>      <rect class="fil1" x="2907.68" y="3318.59" width="136.97" height="136.97"></rect>     </g>    </g>    <g>     <g>      <rect class="fil1" x="3044.65" y="3318.59" width="136.97" height="136.97"></rect>     </g>    </g>    <g>     <g>      <rect class="fil1" x="3318.59" y="3318.59" width="136.97" height="136.97"></rect>     </g>    </g>    <g>     <g>      <rect class="fil1" x="3592.53" y="3318.59" width="136.97" height="136.97"></rect>     </g>    </g>    <g>     <g>      <rect class="fil1" x="3866.47" y="3318.59" width="136.97" height="136.97"></rect>     </g>    </g>    <g>     <g>      <rect class="fil1" x="1537.98" y="3455.56" width="136.97" height="136.97"></rect>     </g>    </g>    <g>     <g>      <rect class="fil1" x="1674.95" y="3455.56" width="136.97" height="136.97"></rect>     </g>    </g>    <g>     <g>      <rect class="fil1" x="1948.89" y="3455.56" width="136.97" height="136.97"></rect>     </g>    </g>    <g>     <g>      <rect class="fil1" x="2222.83" y="3455.56" width="136.97" height="136.97"></rect>     </g>    </g>    <g>     <g>      <rect class="fil1" x="2359.8" y="3455.56" width="136.97" height="136.97"></rect>     </g>    </g>    <g>     <g>      <rect class="fil1" x="2907.68" y="3455.56" width="136.97" height="136.97"></rect>     </g>    </g>    <g>     <g>      <rect class="fil1" x="3044.65" y="3455.56" width="136.97" height="136.97"></rect>     </g>    </g>    <g>     <g>      <rect class="fil1" x="3592.53" y="3455.56" width="136.97" height="136.97"></rect>     </g>    </g>    <g>     <g>      <rect class="fil1" x="3729.5" y="3455.56" width="136.97" height="136.97"></rect>     </g>    </g>    <g>     <g>      <rect class="fil1" x="4140.41" y="3455.56" width="136.97" height="136.97"></rect>     </g>    </g>    <g>     <g>      <rect class="fil1" x="1401.01" y="3592.53" width="136.97" height="136.97"></rect>     </g>    </g>    <g>     <g>      <rect class="fil1" x="1674.95" y="3592.53" width="136.97" height="136.97"></rect>     </g>    </g>    <g>     <g>      <rect class="fil1" x="1948.89" y="3592.53" width="136.97" height="136.97"></rect>     </g>    </g>    <g>     <g>      <rect class="fil1" x="2085.86" y="3592.53" width="136.97" height="136.97"></rect>     </g>    </g>    <g>     <g>      <rect class="fil1" x="2359.8" y="3592.53" width="136.97" height="136.97"></rect>     </g>    </g>    <g>     <g>      <rect class="fil1" x="2496.77" y="3592.53" width="136.97" height="136.97"></rect>     </g>    </g>    <g>     <g>      <rect class="fil1" x="2633.74" y="3592.53" width="136.97" height="136.97"></rect>     </g>    </g>    <g>     <g>      <rect class="fil1" x="2907.68" y="3592.53" width="136.97" height="136.97"></rect>     </g>    </g>    <g>     <g>      <rect class="fil1" x="3044.65" y="3592.53" width="136.97" height="136.97"></rect>     </g>    </g>    <g>     <g>      <rect class="fil1" x="3181.62" y="3592.53" width="136.97" height="136.97"></rect>     </g>    </g>    <g>     <g>      <rect class="fil1" x="3318.59" y="3592.53" width="136.97" height="136.97"></rect>     </g>    </g>    <g>     <g>      <rect class="fil1" x="3455.56" y="3592.53" width="136.97" height="136.97"></rect>     </g>    </g>    <g>     <g>      <rect class="fil1" x="3592.53" y="3592.53" width="136.97" height="136.97"></rect>     </g>    </g>    <g>     <g>      <rect class="fil1" x="1401.01" y="3729.5" width="136.97" height="136.97"></rect>     </g>    </g>    <g>     <g>      <rect class="fil1" x="1537.98" y="3729.5" width="136.97" height="136.97"></rect>     </g>    </g>    <g>     <g>      <rect class="fil1" x="1811.92" y="3729.5" width="136.97" height="136.97"></rect>     </g>    </g>    <g>     <g>      <rect class="fil1" x="1948.89" y="3729.5" width="136.97" height="136.97"></rect>     </g>    </g>    <g>     <g>      <rect class="fil1" x="2085.86" y="3729.5" width="136.97" height="136.97"></rect>     </g>    </g>    <g>     <g>      <rect class="fil1" x="2633.74" y="3729.5" width="136.97" height="136.97"></rect>     </g>    </g>    <g>     <g>      <rect class="fil1" x="2770.71" y="3729.5" width="136.97" height="136.97"></rect>     </g>    </g>    <g>     <g>      <rect class="fil1" x="3455.56" y="3729.5" width="136.97" height="136.97"></rect>     </g>    </g>    <g>     <g>      <rect class="fil1" x="4003.44" y="3729.5" width="136.97" height="136.97"></rect>     </g>    </g>    <g>     <g>      <rect class="fil1" x="2085.86" y="3866.47" width="136.97" height="136.97"></rect>     </g>    </g>    <g>     <g>      <rect class="fil1" x="2633.74" y="3866.47" width="136.97" height="136.97"></rect>     </g>    </g>    <g>     <g>      <rect class="fil1" x="2770.71" y="3866.47" width="136.97" height="136.97"></rect>     </g>    </g>    <g>     <g>      <rect class="fil1" x="3044.65" y="3866.47" width="136.97" height="136.97"></rect>     </g>    </g>    <g>     <g>      <rect class="fil1" x="3181.62" y="3866.47" width="136.97" height="136.97"></rect>     </g>    </g>    <g>     <g>      <rect class="fil1" x="3455.56" y="3866.47" width="136.97" height="136.97"></rect>     </g>    </g>    <g>     <g>      <rect class="fil1" x="3592.53" y="3866.47" width="136.97" height="136.97"></rect>     </g>    </g>    <g>     <g>      <rect class="fil1" x="3866.47" y="3866.47" width="136.97" height="136.97"></rect>     </g>    </g>    <g>     <g>      <rect class="fil1" x="4003.44" y="3866.47" width="136.97" height="136.97"></rect>     </g>    </g>    <g>     <g>      <rect class="fil1" x="4140.41" y="3866.47" width="136.97" height="136.97"></rect>     </g>    </g>    <g>     <g>      <rect class="fil1" x="1537.98" y="4003.44" width="136.97" height="136.97"></rect>     </g>    </g>    <g>     <g>      <rect class="fil1" x="1811.92" y="4003.44" width="136.97" height="136.97"></rect>     </g>    </g>    <g>     <g>      <rect class="fil1" x="2222.83" y="4003.44" width="136.97" height="136.97"></rect>     </g>    </g>    <g>     <g>      <rect class="fil1" x="2359.8" y="4003.44" width="136.97" height="136.97"></rect>     </g>    </g>    <g>     <g>      <rect class="fil1" x="2496.77" y="4003.44" width="136.97" height="136.97"></rect>     </g>    </g>    <g>     <g>      <rect class="fil1" x="2907.68" y="4003.44" width="136.97" height="136.97"></rect>     </g>    </g>    <g>     <g>      <rect class="fil1" x="3592.53" y="4003.44" width="136.97" height="136.97"></rect>     </g>    </g>    <g>     <g>      <rect class="fil1" x="3729.5" y="4003.44" width="136.97" height="136.97"></rect>     </g>    </g>    <g>     <g>      <rect class="fil1" x="3866.47" y="4003.44" width="136.97" height="136.97"></rect>     </g>    </g>    <g>     <g>      <rect class="fil1" x="4140.41" y="4003.44" width="136.97" height="136.97"></rect>     </g>    </g>    <g>     <g>      <rect class="fil1" x="1948.89" y="4140.41" width="136.97" height="136.97"></rect>     </g>    </g>    <g>     <g>      <rect class="fil1" x="2359.8" y="4140.41" width="136.97" height="136.97"></rect>     </g>    </g>    <g>     <g>      <rect class="fil1" x="2496.77" y="4140.41" width="136.97" height="136.97"></rect>     </g>    </g>    <g>     <g>      <rect class="fil1" x="2770.71" y="4140.41" width="136.97" height="136.97"></rect>     </g>    </g>    <g>     <g>      <rect class="fil1" x="3044.65" y="4140.41" width="136.97" height="136.97"></rect>     </g>    </g>    <g>     <g>      <rect class="fil1" x="3455.56" y="4140.41" width="136.97" height="136.97"></rect>     </g>    </g>    <g>     <g>      <rect class="fil1" x="3592.53" y="4140.41" width="136.97" height="136.97"></rect>     </g>    </g>    <path class="fil1" d="M1120.22 305.25l-671.15 0 -143.82 0 0 143.82 0 671.15 0 143.82 143.82 0 671.15 0 143.82 0 0 -143.82 0 -671.15 0 -143.82 -143.82 0zm0 814.97l-671.15 0 0 -671.15 671.15 0 0 671.15z"></path>    <path class="fil1" d="M4133.56 305.25l-671.15 0 -143.82 0 0 143.82 0 671.15 0 143.82 143.82 0 671.15 0 143.82 0 0 -143.82 0 -671.15 0 -143.82 -143.82 0zm0 814.97l-671.15 0 0 -671.15 671.15 0 0 671.15z"></path>    <path class="fil1" d="M1120.22 3318.59l-671.15 0 -143.82 0 0 143.82 0 671.15 0 143.82 143.82 0 671.15 0 143.82 0 0 -143.82 0 -671.15 0 -143.82 -143.82 0zm0 814.97l-671.15 0 0 -671.15 671.15 0 0 671.15z"></path>    <g>     <g>      <rect class="fil1" x="579.19" y="579.19" width="410.91" height="410.91"></rect>     </g>    </g>    <g>     <g>      <rect class="fil1" x="3592.53" y="579.19" width="410.91" height="410.91"></rect>     </g>    </g>    <g>     <g>      <rect class="fil1" x="579.19" y="3592.53" width="410.91" height="410.91"></rect>     </g>    </g>    <path class="fil1" d="M1829.04 1674.95l924.55 0c85.09,0 154.09,69.01 154.09,154.09l0 924.55c0,85.09 -69,154.09 -154.09,154.09l-924.55 0c-85.09,0 -154.09,-69 -154.09,-154.09l0 -924.55c0,-85.08 69,-154.09 154.09,-154.09z"></path>   </g>   <path class="fil2" d="M2784.26 2278.61c0,265.24 -216.69,480.26 -483.97,480.26 -84.89,0 -164.58,-21.68 -233.95,-59.76l-267.97 85.17 87.32 -257.7c-44.07,-72.38 -69.43,-157.24 -69.43,-247.97 0,-265.24 216.69,-480.26 484.03,-480.26 267.28,0 483.97,215.02 483.97,480.26zm-483.97 -403.78l0 0c-224.4,0 -406.97,181.16 -406.97,403.78 0,88.35 28.85,170.17 77.52,236.76l-50.82 149.93 156.41 -49.7c64.21,42.18 141.18,66.79 223.86,66.79 224.35,0 406.91,-181.13 406.91,-403.78 0,-222.62 -182.56,-403.78 -406.91,-403.78zm244.39 514.39l0 0c-2.98,-4.91 -10.9,-7.86 -22.71,-13.74 -11.93,-5.88 -70.23,-34.35 -81.13,-38.28 -10.84,-3.93 -18.78,-5.91 -26.7,5.88 -7.89,11.78 -30.63,38.28 -37.54,46.14 -6.94,7.86 -13.85,8.86 -25.69,2.95 -11.91,-5.88 -50.1,-18.32 -95.44,-58.41 -35.28,-31.2 -59.05,-69.72 -65.99,-81.53 -6.91,-11.76 -0.75,-18.13 5.19,-24.01 5.36,-5.27 11.84,-13.73 17.78,-20.62 5.96,-6.88 7.92,-11.75 11.9,-19.61 3.96,-7.86 1.95,-14.74 -1.03,-20.65 -2.95,-5.88 -26.7,-63.81 -36.59,-87.38 -9.87,-23.54 -19.73,-19.62 -26.67,-19.62 -6.92,0 -14.8,-1 -22.75,-1 -7.88,0 -20.76,2.95 -31.6,14.74 -10.9,11.79 -41.55,40.26 -41.55,98.19 0,57.93 42.5,113.88 48.46,121.74 5.94,7.83 82.05,130.57 202.64,177.71 120.68,47.12 120.68,31.41 142.39,29.43 21.76,-1.95 70.2,-28.45 80.09,-55.95 9.9,-27.48 9.9,-51.08 6.94,-55.98z"></path>  </g> </g></svg>